<svg width="3236" height="1709" xmlns="http://www.w3.org/2000/svg" xmlns:xlink="http://www.w3.org/1999/xlink" xml:space="preserve" overflow="hidden"><defs><clipPath id="clip0"><rect x="302" y="275" width="3236" height="1709"/></clipPath></defs><g clip-path="url(#clip0)" transform="translate(-302 -275)"><rect x="2961.5" y="285.5" width="573" height="233" stroke="#000000" stroke-width="6.875" stroke-linecap="butt" stroke-linejoin="round" stroke-miterlimit="10" stroke-opacity="1" fill="#E9AEAE" fill-opacity="1"/><text fill="#000000" fill-opacity="1" font-family="Helvetica,Helvetica_MSFontService,sans-serif" font-style="normal" font-variant="normal" font-weight="400" font-stretch="normal" font-size="83" text-anchor="start" direction="ltr" writing-mode="lr-tb" unicode-bidi="normal" text-decoration="none" transform="matrix(1 0 0 1 3098.62 377)">Solution </text><text fill="#000000" fill-opacity="1" font-family="Cambria Math,Cambria Math_MSFontService,sans-serif" font-style="normal" font-variant="normal" font-weight="400" font-stretch="normal" font-size="83" text-anchor="start" direction="ltr" writing-mode="lr-tb" unicode-bidi="normal" text-decoration="none" transform="translate(3099.08 477)">Î¨</text><text fill="#000000" fill-opacity="1" font-family="Cambria Math,Cambria Math_MSFontService,sans-serif" font-style="normal" font-variant="normal" font-weight="400" font-stretch="normal" font-size="61" text-anchor="start" direction="ltr" writing-mode="lr-tb" unicode-bidi="normal" text-decoration="none" transform="translate(3157.22 494)">ğ‘–</text><text fill="#000000" fill-opacity="1" font-family="Cambria Math,Cambria Math_MSFontService,sans-serif" font-style="normal" font-variant="normal" font-weight="400" font-stretch="normal" font-size="83" text-anchor="start" direction="ltr" writing-mode="lr-tb" unicode-bidi="normal" text-decoration="none" transform="translate(3183.89 477)">,</text><text fill="#000000" fill-opacity="1" font-family="Cambria Math,Cambria Math_MSFontService,sans-serif" font-style="normal" font-variant="normal" font-weight="400" font-stretch="normal" font-size="83" text-anchor="start" direction="ltr" writing-mode="lr-tb" unicode-bidi="normal" text-decoration="none" transform="translate(3214.83 477)">Î˜</text><text fill="#000000" fill-opacity="1" font-family="Cambria Math,Cambria Math_MSFontService,sans-serif" font-style="normal" font-variant="normal" font-weight="400" font-stretch="normal" font-size="61" text-anchor="start" direction="ltr" writing-mode="lr-tb" unicode-bidi="normal" text-decoration="none" transform="translate(3268.68 494)">ğ‘–</text><text fill="#000000" fill-opacity="1" font-family="Cambria Math,Cambria Math_MSFontService,sans-serif" font-style="normal" font-variant="normal" font-weight="400" font-stretch="normal" font-size="83" text-anchor="start" direction="ltr" writing-mode="lr-tb" unicode-bidi="normal" text-decoration="none" transform="translate(3295.36 477)">,</text><text fill="#000000" fill-opacity="1" font-family="Cambria Math,Cambria Math_MSFontService,sans-serif" font-style="normal" font-variant="normal" font-weight="400" font-stretch="normal" font-size="83" text-anchor="start" direction="ltr" writing-mode="lr-tb" unicode-bidi="normal" text-decoration="none" transform="translate(3326.3 477)">ğ‘</text><text fill="#000000" fill-opacity="1" font-family="Cambria Math,Cambria Math_MSFontService,sans-serif" font-style="normal" font-variant="normal" font-weight="400" font-stretch="normal" font-size="61" text-anchor="start" direction="ltr" writing-mode="lr-tb" unicode-bidi="normal" text-decoration="none" transform="translate(3369.38 494)">ğ‘–</text><path d="M1858.5 823.062 2113.44 823.063 2113.44 829.938 1858.5 829.937ZM2087.67 807.489 2120.26 826.5 2087.67 845.511C2086.03 846.468 2083.93 845.914 2082.97 844.274 2082.02 842.634 2082.57 840.529 2084.21 839.573L2111.71 823.531 2111.71 829.469 2084.21 813.428C2082.57 812.471 2082.02 810.366 2082.97 808.726 2083.93 807.087 2086.03 806.533 2087.67 807.489Z" fill="#000000" fill-rule="nonzero" fill-opacity="1"/><rect x="1370.5" y="759.5" width="488" height="133" fill="#E2F0D9" fill-opacity="1"/><path d="M1367.06 759.5C1367.06 757.601 1368.6 756.062 1370.5 756.062L1858.5 756.062C1860.4 756.062 1861.94 757.601 1861.94 759.5L1861.94 892.5C1861.94 894.398 1860.4 895.937 1858.5 895.937L1370.5 895.937C1368.6 895.937 1367.06 894.398 1367.06 892.5ZM1373.94 892.5 1370.5 889.062 1858.5 889.062 1855.06 892.5 1855.06 759.5 1858.5 762.937 1370.5 762.937 1373.94 759.5Z" fill="#000000" fill-rule="nonzero" fill-opacity="1"/><text fill="#000000" fill-opacity="1" font-family="Helvetica,Helvetica_MSFontService,sans-serif" font-style="normal" font-variant="normal" font-weight="400" font-stretch="normal" font-size="83" text-anchor="start" direction="ltr" writing-mode="lr-tb" unicode-bidi="normal" text-decoration="none" transform="matrix(1 0 0 1 1497.39 852)">MNN1</text><rect x="2120.5" y="713.5" width="572" height="236" fill="#DEEBF7" fill-opacity="1"/><path d="M2117.06 713.5C2117.06 711.602 2118.6 710.063 2120.5 710.063L2692.5 710.063C2694.4 710.063 2695.94 711.602 2695.94 713.5L2695.94 949.5C2695.94 951.398 2694.4 952.937 2692.5 952.937L2120.5 952.937C2118.6 952.937 2117.06 951.398 2117.06 949.5ZM2123.94 949.5 2120.5 946.062 2692.5 946.062 2689.06 949.5 2689.06 713.5 2692.5 716.938 2120.5 716.938 2123.94 713.5Z" fill="#000000" fill-rule="nonzero" fill-opacity="1"/><text fill="#000000" fill-opacity="1" font-family="Helvetica,Helvetica_MSFontService,sans-serif" font-style="normal" font-variant="normal" font-weight="400" font-stretch="normal" font-size="83" text-anchor="start" direction="ltr" writing-mode="lr-tb" unicode-bidi="normal" text-decoration="none" transform="matrix(1 0 0 1 2280.08 805)">Learns </text><text fill="#000000" fill-opacity="1" font-family="Cambria Math,Cambria Math_MSFontService,sans-serif" font-style="normal" font-variant="normal" font-weight="400" font-stretch="normal" font-size="83" text-anchor="start" direction="ltr" writing-mode="lr-tb" unicode-bidi="normal" text-decoration="none" transform="translate(2222.83 908)">ğ‘“</text><text fill="#000000" fill-opacity="1" font-family="Cambria Math,Cambria Math_MSFontService,sans-serif" font-style="normal" font-variant="normal" font-weight="400" font-stretch="normal" font-size="83" text-anchor="start" direction="ltr" writing-mode="lr-tb" unicode-bidi="normal" text-decoration="none" transform="translate(2270.5 908)">:</text><text fill="#000000" fill-opacity="1" font-family="Cambria Math,Cambria Math_MSFontService,sans-serif" font-style="normal" font-variant="normal" font-weight="400" font-stretch="normal" font-size="83" text-anchor="start" direction="ltr" writing-mode="lr-tb" unicode-bidi="normal" text-decoration="none" transform="translate(2315.19 908)">ğ‘›</text><path d="M19.8989-58.4404 33.6782-45.6743 31.4897-43.3643 17.1836-53.2124 16.7378-53.2124 2.18848-43.3643 0-45.6743 14.4683-58.4404Z" fill="#000000" fill-rule="nonzero" fill-opacity="1" transform="matrix(1 0 0 1 2325.52 908)"/><text fill="#000000" fill-opacity="0" font-family="Arial,Arial_MSFontService,sans-serif" font-size="15.0762" direction="ltr" writing-mode="lr-tb" y="-45.2488">à·œ</text><text fill="#000000" fill-opacity="1" font-family="Cambria Math,Cambria Math_MSFontService,sans-serif" font-style="normal" font-variant="normal" font-weight="400" font-stretch="normal" font-size="61" text-anchor="start" direction="ltr" writing-mode="lr-tb" unicode-bidi="normal" text-decoration="none" transform="translate(2362.74 925)">ğ‘–</text><text fill="#000000" fill-opacity="1" font-family="Cambria Math,Cambria Math_MSFontService,sans-serif" font-style="normal" font-variant="normal" font-weight="400" font-stretch="normal" font-size="83" text-anchor="start" direction="ltr" writing-mode="lr-tb" unicode-bidi="normal" text-decoration="none" transform="translate(2412.33 908)">â†’</text><text fill="#000000" fill-opacity="1" font-family="Cambria Math,Cambria Math_MSFontService,sans-serif" font-style="normal" font-variant="normal" font-weight="400" font-stretch="normal" font-size="83" text-anchor="start" direction="ltr" writing-mode="lr-tb" unicode-bidi="normal" text-decoration="none" transform="translate(2504.57 908)">Î¨</text><path d="M25.4917-55.9277 46.0796-45.9175 44.9043-43.3643 23.2222-50.6997 22.7764-50.6997 1.13477-43.3643 0-45.9175 20.061-55.9277Z" fill="#000000" fill-rule="nonzero" fill-opacity="1" transform="matrix(1 0 0 1 2513.9 893)"/><text fill="#000000" fill-opacity="0" font-family="Arial,Arial_MSFontService,sans-serif" font-size="12.5635" direction="ltr" writing-mode="lr-tb" y="-44.9347">à·¡</text><text fill="#000000" fill-opacity="1" font-family="Cambria Math,Cambria Math_MSFontService,sans-serif" font-style="normal" font-variant="normal" font-weight="400" font-stretch="normal" font-size="61" text-anchor="start" direction="ltr" writing-mode="lr-tb" unicode-bidi="normal" text-decoration="none" transform="translate(2562.71 925)">ğ‘–</text><rect x="314.5" y="866.5" width="813" height="345" stroke="#000000" stroke-width="6.875" stroke-linecap="butt" stroke-linejoin="round" stroke-miterlimit="10" stroke-opacity="1" fill="#FFE699" fill-opacity="1"/><text fill="#000000" fill-opacity="1" font-family="Helvetica,Helvetica_MSFontService,sans-serif" font-style="normal" font-variant="normal" font-weight="400" font-stretch="normal" font-size="83" text-anchor="start" direction="ltr" writing-mode="lr-tb" unicode-bidi="normal" text-decoration="none" transform="matrix(1 0 0 1 355.887 958)">Reference solutions </text><text fill="#000000" fill-opacity="1" font-family="Helvetica,Helvetica_MSFontService,sans-serif" font-style="normal" font-variant="normal" font-weight="400" font-stretch="normal" font-size="83" text-anchor="start" direction="ltr" writing-mode="lr-tb" unicode-bidi="normal" text-decoration="none" transform="matrix(1 0 0 1 400.574 1057)">+ Gaussian noise</text><text fill="#000000" fill-opacity="1" font-family="Cambria Math,Cambria Math_MSFontService,sans-serif" font-style="normal" font-variant="normal" font-weight="400" font-stretch="normal" font-size="83" text-anchor="start" direction="ltr" writing-mode="lr-tb" unicode-bidi="normal" text-decoration="none" transform="translate(625.272 1160)">Î¨</text><path d="M25.4917-55.9277 46.0796-45.9175 44.9043-43.3643 23.2222-50.6997 22.7764-50.6997 1.13477-43.3643 0-45.9175 20.061-55.9277Z" fill="#000000" fill-rule="nonzero" fill-opacity="1" transform="matrix(1 0 0 1 634.599 1144)"/><text fill="#000000" fill-opacity="0" font-family="Arial,Arial_MSFontService,sans-serif" font-size="12.5635" direction="ltr" writing-mode="lr-tb" y="-44.9347">à·¡</text><text fill="#000000" fill-opacity="1" font-family="Cambria Math,Cambria Math_MSFontService,sans-serif" font-style="normal" font-variant="normal" font-weight="400" font-stretch="normal" font-size="61" text-anchor="start" direction="ltr" writing-mode="lr-tb" unicode-bidi="normal" text-decoration="none" transform="translate(683.412 1177)">ğ‘–</text><text fill="#000000" fill-opacity="1" font-family="Cambria Math,Cambria Math_MSFontService,sans-serif" font-style="normal" font-variant="normal" font-weight="400" font-stretch="normal" font-size="83" text-anchor="start" direction="ltr" writing-mode="lr-tb" unicode-bidi="normal" text-decoration="none" transform="translate(710.087 1160)">,</text><text fill="#000000" fill-opacity="1" font-family="Cambria Math,Cambria Math_MSFontService,sans-serif" font-style="normal" font-variant="normal" font-weight="400" font-stretch="normal" font-size="83" text-anchor="start" direction="ltr" writing-mode="lr-tb" unicode-bidi="normal" text-decoration="none" transform="translate(741.024 1160)">ğ‘›</text><path d="M19.8989-58.4404 33.6782-45.6743 31.4897-43.3643 17.1836-53.2124 16.7378-53.2124 2.18848-43.3643 0-45.6743 14.4683-58.4404Z" fill="#000000" fill-rule="nonzero" fill-opacity="1" transform="matrix(1 0 0 1 751.36 1160)"/><text fill="#000000" fill-opacity="0" font-family="Arial,Arial_MSFontService,sans-serif" font-size="15.0762" direction="ltr" writing-mode="lr-tb" y="-45.2488">à·œ</text><text fill="#000000" fill-opacity="1" font-family="Cambria Math,Cambria Math_MSFontService,sans-serif" font-style="normal" font-variant="normal" font-weight="400" font-stretch="normal" font-size="61" text-anchor="start" direction="ltr" writing-mode="lr-tb" unicode-bidi="normal" text-decoration="none" transform="translate(788.577 1177)">ğ‘–</text><path d="M2.27248-2.5792 241.08 207.829 236.535 212.987-2.27248 2.5792ZM232.041 179.109 243.925 214.918 206.905 207.637C205.042 207.27 203.829 205.463 204.195 203.601 204.562 201.738 206.369 200.525 208.232 200.891L239.47 207.035 235.544 211.49 225.515 181.274C224.917 179.472 225.893 177.527 227.695 176.929 229.497 176.331 231.442 177.307 232.041 179.109Z" fill="#000000" fill-rule="nonzero" fill-opacity="1" transform="matrix(1 0 0 -1 1127.5 1038.41)"/><rect x="1370.5" y="1184.5" width="488" height="133" fill="#E2F0D9" fill-opacity="1"/><path d="M1367.06 1184.5C1367.06 1182.6 1368.6 1181.06 1370.5 1181.06L1858.5 1181.06C1860.4 1181.06 1861.94 1182.6 1861.94 1184.5L1861.94 1317.5C1861.94 1319.4 1860.4 1320.94 1858.5 1320.94L1370.5 1320.94C1368.6 1320.94 1367.06 1319.4 1367.06 1317.5ZM1373.94 1317.5 1370.5 1314.06 1858.5 1314.06 1855.06 1317.5 1855.06 1184.5 1858.5 1187.94 1370.5 1187.94 1373.94 1184.5Z" fill="#000000" fill-rule="nonzero" fill-opacity="1"/><text fill="#000000" fill-opacity="1" font-family="Helvetica,Helvetica_MSFontService,sans-serif" font-style="normal" font-variant="normal" font-weight="400" font-stretch="normal" font-size="83" text-anchor="start" direction="ltr" writing-mode="lr-tb" unicode-bidi="normal" text-decoration="none" transform="matrix(1 0 0 1 1497.39 1276)">MNN2</text><path d="M1129.76 1035.91 1368.54 1243.78 1364.02 1248.96 1125.24 1041.09ZM1359.33 1215.11 1371.43 1250.85 1334.36 1243.79C1332.5 1243.43 1331.27 1241.63 1331.63 1239.77 1331.98 1237.9 1333.78 1236.68 1335.65 1237.03L1366.92 1242.99 1363.02 1247.47 1352.82 1217.31C1352.21 1215.52 1353.17 1213.57 1354.97 1212.96 1356.77 1212.35 1358.72 1213.31 1359.33 1215.11Z" fill="#000000" fill-rule="nonzero" fill-opacity="1"/><path d="M1858.5 1247.06 2113.44 1247.06 2113.44 1253.94 1858.5 1253.94ZM2087.67 1231.49 2120.26 1250.5 2087.67 1269.51C2086.03 1270.47 2083.93 1269.91 2082.97 1268.27 2082.02 1266.63 2082.57 1264.53 2084.21 1263.57L2111.71 1247.53 2111.71 1253.47 2084.21 1237.43C2082.57 1236.47 2082.02 1234.37 2082.97 1232.73 2083.93 1231.09 2086.03 1230.53 2087.67 1231.49Z" fill="#000000" fill-rule="nonzero" fill-opacity="1"/><rect x="2120.5" y="1133.5" width="572" height="238" fill="#DEEBF7" fill-opacity="1"/><path d="M2117.06 1133.5C2117.06 1131.6 2118.6 1130.06 2120.5 1130.06L2692.5 1130.06C2694.4 1130.06 2695.94 1131.6 2695.94 1133.5L2695.94 1371.5C2695.94 1373.4 2694.4 1374.94 2692.5 1374.94L2120.5 1374.94C2118.6 1374.94 2117.06 1373.4 2117.06 1371.5ZM2123.94 1371.5 2120.5 1368.06 2692.5 1368.06 2689.06 1371.5 2689.06 1133.5 2692.5 1136.94 2120.5 1136.94 2123.94 1133.5Z" fill="#000000" fill-rule="nonzero" fill-opacity="1"/><text fill="#000000" fill-opacity="1" font-family="Helvetica,Helvetica_MSFontService,sans-serif" font-style="normal" font-variant="normal" font-weight="400" font-stretch="normal" font-size="83" text-anchor="start" direction="ltr" writing-mode="lr-tb" unicode-bidi="normal" text-decoration="none" transform="matrix(1 0 0 1 2280.08 1225)">Learns </text><text fill="#000000" fill-opacity="1" font-family="Cambria Math,Cambria Math_MSFontService,sans-serif" font-style="normal" font-variant="normal" font-weight="400" font-stretch="normal" font-size="83" text-anchor="start" direction="ltr" writing-mode="lr-tb" unicode-bidi="normal" text-decoration="none" transform="translate(2175.99 1328)">ğ‘“</text><text fill="#000000" fill-opacity="1" font-family="Cambria Math,Cambria Math_MSFontService,sans-serif" font-style="normal" font-variant="normal" font-weight="400" font-stretch="normal" font-size="61" text-anchor="start" direction="ltr" writing-mode="lr-tb" unicode-bidi="normal" text-decoration="none" transform="translate(2226.27 1298)">âˆ’</text><text fill="#000000" fill-opacity="1" font-family="Cambria Math,Cambria Math_MSFontService,sans-serif" font-style="normal" font-variant="normal" font-weight="400" font-stretch="normal" font-size="61" text-anchor="start" direction="ltr" writing-mode="lr-tb" unicode-bidi="normal" text-decoration="none" transform="translate(2269.81 1298)">1</text><text fill="#000000" fill-opacity="1" font-family="Cambria Math,Cambria Math_MSFontService,sans-serif" font-style="normal" font-variant="normal" font-weight="400" font-stretch="normal" font-size="83" text-anchor="start" direction="ltr" writing-mode="lr-tb" unicode-bidi="normal" text-decoration="none" transform="translate(2308.17 1328)">:</text><text fill="#000000" fill-opacity="1" font-family="Cambria Math,Cambria Math_MSFontService,sans-serif" font-style="normal" font-variant="normal" font-weight="400" font-stretch="normal" font-size="83" text-anchor="start" direction="ltr" writing-mode="lr-tb" unicode-bidi="normal" text-decoration="none" transform="translate(2336.82 1328)"> </text><text fill="#000000" fill-opacity="1" font-family="Cambria Math,Cambria Math_MSFontService,sans-serif" font-style="normal" font-variant="normal" font-weight="400" font-stretch="normal" font-size="83" text-anchor="start" direction="ltr" writing-mode="lr-tb" unicode-bidi="normal" text-decoration="none" transform="translate(2362.03 1328)">Î¨</text><path d="M25.4917-55.9277 46.0796-45.9175 44.9043-43.3643 23.2222-50.6997 22.7764-50.6997 1.13477-43.3643 0-45.9175 20.061-55.9277Z" fill="#000000" fill-rule="nonzero" fill-opacity="1" transform="matrix(1 0 0 1 2371.35 1313)"/><text fill="#000000" fill-opacity="0" font-family="Arial,Arial_MSFontService,sans-serif" font-size="12.5635" direction="ltr" writing-mode="lr-tb" y="-44.9347">à·¡</text><text fill="#000000" fill-opacity="1" font-family="Cambria Math,Cambria Math_MSFontService,sans-serif" font-style="normal" font-variant="normal" font-weight="400" font-stretch="normal" font-size="61" text-anchor="start" direction="ltr" writing-mode="lr-tb" unicode-bidi="normal" text-decoration="none" transform="translate(2420.17 1345)">ğ‘–</text><text fill="#000000" fill-opacity="1" font-family="Cambria Math,Cambria Math_MSFontService,sans-serif" font-style="normal" font-variant="normal" font-weight="400" font-stretch="normal" font-size="83" text-anchor="start" direction="ltr" writing-mode="lr-tb" unicode-bidi="normal" text-decoration="none" transform="translate(2469.76 1328)">â†’</text><text fill="#000000" fill-opacity="1" font-family="Cambria Math,Cambria Math_MSFontService,sans-serif" font-style="normal" font-variant="normal" font-weight="400" font-stretch="normal" font-size="83" text-anchor="start" direction="ltr" writing-mode="lr-tb" unicode-bidi="normal" text-decoration="none" transform="translate(2562 1328)">ğ‘›</text><path d="M19.8989-58.4404 33.6782-45.6743 31.4897-43.3643 17.1836-53.2124 16.7378-53.2124 2.18848-43.3643 0-45.6743 14.4683-58.4404Z" fill="#000000" fill-rule="nonzero" fill-opacity="1" transform="matrix(1 0 0 1 2572.33 1328)"/><text fill="#000000" fill-opacity="0" font-family="Arial,Arial_MSFontService,sans-serif" font-size="15.0762" direction="ltr" writing-mode="lr-tb" y="-45.2488">à·œ</text><text fill="#000000" fill-opacity="1" font-family="Cambria Math,Cambria Math_MSFontService,sans-serif" font-style="normal" font-variant="normal" font-weight="400" font-stretch="normal" font-size="61" text-anchor="start" direction="ltr" writing-mode="lr-tb" unicode-bidi="normal" text-decoration="none" transform="translate(2609.55 1345)">ğ‘–</text><rect x="2958.5" y="1618.5" width="572" height="333" stroke="#000000" stroke-width="6.875" stroke-linecap="butt" stroke-linejoin="round" stroke-miterlimit="10" stroke-opacity="1" fill="#FFE699" fill-opacity="1"/><text fill="#000000" fill-opacity="1" font-family="Helvetica,Helvetica_MSFontService,sans-serif" font-style="normal" font-variant="normal" font-weight="400" font-stretch="normal" font-size="83" text-anchor="start" direction="ltr" writing-mode="lr-tb" unicode-bidi="normal" text-decoration="none" transform="matrix(1 0 0 1 3072.16 1710)">FVM with </text><text fill="#000000" fill-opacity="1" font-family="Helvetica,Helvetica_MSFontService,sans-serif" font-style="normal" font-variant="normal" font-weight="400" font-stretch="normal" font-size="83" text-anchor="start" direction="ltr" writing-mode="lr-tb" unicode-bidi="normal" text-decoration="none" transform="matrix(1 0 0 1 3088.2 1809)">adaptive </text><text fill="#000000" fill-opacity="1" font-family="Helvetica,Helvetica_MSFontService,sans-serif" font-style="normal" font-variant="normal" font-weight="400" font-stretch="normal" font-size="83" text-anchor="start" direction="ltr" writing-mode="lr-tb" unicode-bidi="normal" text-decoration="none" transform="matrix(1 0 0 1 3099.66 1908)">scheme</text><rect x="2958.5" y="1138.5" width="572" height="233" fill="#DEEBF7" fill-opacity="1"/><path d="M2955.06 1138.5C2955.06 1136.6 2956.6 1135.06 2958.5 1135.06L3530.5 1135.06C3532.4 1135.06 3533.94 1136.6 3533.94 1138.5L3533.94 1371.5C3533.94 1373.4 3532.4 1374.94 3530.5 1374.94L2958.5 1374.94C2956.6 1374.94 2955.06 1373.4 2955.06 1371.5ZM2961.94 1371.5 2958.5 1368.06 3530.5 1368.06 3527.06 1371.5 3527.06 1138.5 3530.5 1141.94 2958.5 1141.94 2961.94 1138.5Z" fill="#000000" fill-rule="nonzero" fill-opacity="1"/><text fill="#000000" fill-opacity="1" font-family="Helvetica,Helvetica_MSFontService,sans-serif" font-style="normal" font-variant="normal" font-weight="400" font-stretch="normal" font-size="83" text-anchor="start" direction="ltr" writing-mode="lr-tb" unicode-bidi="normal" text-decoration="none" transform="matrix(1 0 0 1 3145.49 1231)">DRW </text><text fill="#000000" fill-opacity="1" font-family="Helvetica,Helvetica_MSFontService,sans-serif" font-style="normal" font-variant="normal" font-weight="400" font-stretch="normal" font-size="83" text-anchor="start" direction="ltr" writing-mode="lr-tb" unicode-bidi="normal" text-decoration="none" transform="matrix(1 0 0 1 3074.45 1330)">algorithm</text><rect x="2120.5" y="1668.5" width="572" height="233" stroke="#000000" stroke-width="6.875" stroke-linecap="butt" stroke-linejoin="round" stroke-miterlimit="10" stroke-opacity="1" fill="#E9AEAE" fill-opacity="1"/><text fill="#000000" fill-opacity="1" font-family="Helvetica,Helvetica_MSFontService,sans-serif" font-style="normal" font-variant="normal" font-weight="400" font-stretch="normal" font-size="83" text-anchor="start" direction="ltr" writing-mode="lr-tb" unicode-bidi="normal" text-decoration="none" transform="matrix(1 0 0 1 2197.56 1760)">Equation to </text><text fill="#000000" fill-opacity="1" font-family="Helvetica,Helvetica_MSFontService,sans-serif" font-style="normal" font-variant="normal" font-weight="400" font-stretch="normal" font-size="83" text-anchor="start" direction="ltr" writing-mode="lr-tb" unicode-bidi="normal" text-decoration="none" transform="matrix(1 0 0 1 2229.65 1859)">be solved</text><path d="M3.4375-5.11793e-06 3.43785 235.59-3.43715 235.59-3.4375 5.11793e-06ZM19.0112 209.822 0.000360645 242.412-19.0106 209.822C-19.9672 208.182-19.4133 206.077-17.7734 205.121-16.1336 204.164-14.0287 204.718-13.0721 206.358L2.96959 233.858-2.96889 233.858 13.0727 206.358C14.0293 204.718 16.1342 204.164 17.774 205.121 19.4139 206.077 19.9678 208.182 19.0112 209.822Z" fill="#000000" fill-rule="nonzero" fill-opacity="1" transform="matrix(1 0 0 -1 3249.5 1140.9)"/><path d="M2696.5 1247.06 2951.44 1247.06 2951.44 1253.94 2696.5 1253.94ZM2925.67 1231.49 2958.26 1250.5 2925.67 1269.51C2924.03 1270.47 2921.93 1269.91 2920.97 1268.27 2920.02 1266.63 2920.57 1264.53 2922.21 1263.57L2949.71 1247.53 2949.71 1253.47 2922.21 1237.43C2920.57 1236.47 2920.02 1234.37 2920.97 1232.73 2921.93 1231.09 2924.03 1230.53 2925.67 1231.49Z" fill="#000000" fill-rule="nonzero" fill-opacity="1"/><rect x="2961.5" y="764.5" width="573" height="134" stroke="#000000" stroke-width="6.875" stroke-linecap="butt" stroke-linejoin="round" stroke-miterlimit="10" stroke-opacity="1" fill="#E9AEAE" fill-opacity="1"/><text fill="#000000" fill-opacity="1" font-family="Helvetica,Helvetica_MSFontService,sans-serif" font-style="normal" font-variant="normal" font-weight="400" font-stretch="normal" font-size="83" text-anchor="start" direction="ltr" writing-mode="lr-tb" unicode-bidi="normal" text-decoration="none" transform="matrix(1 0 0 1 3050.05 858)">Solution </text><text fill="#000000" fill-opacity="1" font-family="Cambria Math,Cambria Math_MSFontService,sans-serif" font-style="normal" font-variant="normal" font-weight="400" font-stretch="normal" font-size="83" text-anchor="start" direction="ltr" writing-mode="lr-tb" unicode-bidi="normal" text-decoration="none" transform="translate(3370.88 858)">ğ‘›</text><text fill="#000000" fill-opacity="1" font-family="Cambria Math,Cambria Math_MSFontService,sans-serif" font-style="normal" font-variant="normal" font-weight="400" font-stretch="normal" font-size="61" text-anchor="start" direction="ltr" writing-mode="lr-tb" unicode-bidi="normal" text-decoration="none" transform="translate(3418.43 875)">ğ‘–</text><path d="M2696.5 1781.06 2951.44 1781.06 2951.44 1787.94 2696.5 1787.94ZM2925.67 1765.49 2958.26 1784.5 2925.67 1803.51C2924.03 1804.47 2921.93 1803.91 2920.97 1802.27 2920.02 1800.63 2920.57 1798.53 2922.21 1797.57L2949.71 1781.53 2949.71 1787.47 2922.21 1771.43C2920.57 1770.47 2920.02 1768.37 2920.97 1766.73 2921.93 1765.09 2924.03 1764.53 2925.67 1765.49Z" fill="#000000" fill-rule="nonzero" fill-opacity="1"/><path d="M2696.5 828.063 2951.44 828.063 2951.44 834.938 2696.5 834.938ZM2925.67 812.489 2958.26 831.5 2925.67 850.511C2924.03 851.468 2921.93 850.914 2920.97 849.274 2920.02 847.634 2920.57 845.529 2922.21 844.573L2949.71 828.531 2949.71 834.47 2922.21 818.428C2920.57 817.471 2920.02 815.367 2920.97 813.727 2921.93 812.087 2924.03 811.533 2925.67 812.489Z" fill="#000000" fill-rule="nonzero" fill-opacity="1"/><path d="M3.4375-5.11793e-06 3.43785 235.59-3.43715 235.59-3.4375 5.11793e-06ZM19.0112 209.822 0.000360645 242.412-19.0106 209.822C-19.9672 208.182-19.4133 206.077-17.7734 205.121-16.1336 204.164-14.0287 204.718-13.0721 206.358L2.96959 233.858-2.96889 233.858 13.0727 206.358C14.0293 204.718 16.1342 204.164 17.774 205.121 19.4139 206.077 19.9678 208.182 19.0112 209.822Z" fill="#000000" fill-rule="nonzero" fill-opacity="1" transform="matrix(1 0 0 -1 3244.5 1613.9)"/><path d="M3.4375-5.11793e-06 3.43785 235.59-3.43715 235.59-3.4375 5.11793e-06ZM19.0112 209.822 0.000360645 242.412-19.0106 209.822C-19.9672 208.182-19.4133 206.077-17.7734 205.121-16.1336 204.164-14.0287 204.718-13.0721 206.358L2.96959 233.858-2.96889 233.858 13.0727 206.358C14.0293 204.718 16.1342 204.164 17.774 205.121 19.4139 206.077 19.9678 208.182 19.0112 209.822Z" fill="#000000" fill-rule="nonzero" fill-opacity="1" transform="matrix(1 0 0 -1 3248.5 759.896)"/></g></svg>