<svg width="722" height="695" xmlns="http://www.w3.org/2000/svg" xmlns:xlink="http://www.w3.org/1999/xlink" overflow="hidden"><defs><clipPath id="clip0"><rect x="278" y="4" width="722" height="695"/></clipPath></defs><g clip-path="url(#clip0)" transform="translate(-278 -4)"><path d="M297.802 339.508C276.898 321.11 275.95 288.017 295.686 265.591 315.422 243.165 348.367 239.9 369.272 258.297 348.367 239.9 315.422 243.165 295.686 265.591 275.95 288.017 276.898 321.11 297.802 339.508Z" stroke="#000000" stroke-width="6" stroke-miterlimit="8" fill="#4472C4" fill-rule="evenodd"/><path d="M285 584C285 549.758 442.148 522 636 522 829.852 522 987 549.758 987 584 987 549.758 829.852 522 636 522 442.148 522 285 549.758 285 584Z" stroke="#000000" stroke-width="6" stroke-miterlimit="8" fill="#4472C4" fill-rule="evenodd"/><rect x="281" y="582" width="15" height="27" fill="#FFFFFF"/><rect x="984" y="582" width="15" height="27" fill="#FFFFFF"/><path d="M85 221C38.0558 221 1.08216e-14 171.527 0 110.5-2.16433e-14 49.4725 38.0558 0 85 0 38.0558 0 1.08216e-14 49.4725 0 110.5-2.16433e-14 171.527 38.0558 221 85 221Z" stroke="#000000" stroke-width="6" stroke-miterlimit="8" fill="#4472C4" fill-rule="evenodd" transform="matrix(1.83697e-16 1 1 -1.83697e-16 525 8)"/><path d="M55.9436 138.525C25.0468 138.525 7.12237e-15 107.515 0 69.2624-1.42447e-14 31.0098 25.0468 0 55.9436 0 25.0468 0 7.12237e-15 31.0098 0 69.2624-1.42447e-14 107.515 25.0468 138.525 55.9436 138.525Z" stroke="#000000" stroke-width="6" stroke-miterlimit="8" fill="#4472C4" fill-rule="evenodd" transform="matrix(-0.497838 0.86727 0.86727 0.497838 766.474 53.9592)"/><path d="M50.422 124.97C22.5747 124.97 6.4194e-15 96.9948 0 62.4852-1.28388e-14 27.9756 22.5747 0 50.422 0 22.5747 0 6.4194e-15 27.9756 0 62.4852-1.28388e-14 96.9948 22.5747 124.97 50.422 124.97Z" stroke="#000000" stroke-width="6" stroke-miterlimit="8" fill="#4472C4" fill-rule="evenodd" transform="matrix(-0.720037 0.693936 0.693936 0.720037 873.28 135.234)"/><path d="M50.422 108.181C22.5747 108.181 6.4194e-15 83.9638 0 54.0904-1.28388e-14 24.2171 22.5747 0 50.422 0 22.5747 0 6.4194e-15 24.2171 0 54.0904-1.28388e-14 83.9638 22.5747 108.181 50.422 108.181Z" stroke="#000000" stroke-width="6" stroke-miterlimit="8" fill="#4472C4" fill-rule="evenodd" transform="matrix(-0.750694 0.66065 0.66065 0.750694 939.488 224.986)"/><path d="M0 0C10.0102 26.764 20.0205 53.5282 41.6215 81.733 63.2225 109.938 102.21 148.185 129.606 169.229 157.003 190.274 181.501 199.137 206 208" stroke="#000000" stroke-width="6" stroke-miterlimit="8" fill="none" fill-rule="evenodd" transform="matrix(-1 0 0 1 987 318)"/><path d="M412.147 171.44C396.765 144.644 411.19 107.484 444.365 88.4407 477.541 69.3971 516.904 75.6816 532.285 102.477 516.904 75.6816 477.541 69.3971 444.365 88.4407 411.19 107.484 396.765 144.644 412.147 171.44Z" stroke="#000000" stroke-width="6" stroke-miterlimit="8" fill="#4472C4" fill-rule="evenodd"/><path d="M347.213 260.207C327.161 240.883 330.32 205.074 354.268 180.226 378.215 155.377 413.883 150.899 433.934 170.224 413.883 150.899 378.215 155.377 354.268 180.226 330.32 205.074 327.161 240.883 347.213 260.207Z" stroke="#000000" stroke-width="6" stroke-miterlimit="8" fill="#4472C4" fill-rule="evenodd"/><path d="M284 318C294.01 344.764 304.02 371.528 325.621 399.733 347.223 427.938 386.21 466.185 413.606 487.229 441.003 508.274 465.501 517.137 490 526" stroke="#000000" stroke-width="6" stroke-miterlimit="8" fill="none" fill-rule="evenodd"/><path d="M513.999 97.693 534.263 89.4944 548.646 125.044 528.382 133.242Z" fill="#FFFFFF" fill-rule="evenodd"/><path d="M740.964 89.4946 760.454 100.381 741.753 133.861 722.263 122.975Z" fill="#FFFFFF" fill-rule="evenodd"/><path d="M395.417 170.153 416.698 147.862 456.084 185.463 434.804 207.754Z" fill="#FFFFFF" fill-rule="evenodd"/><path d="M853.38 147.27 875.639 170.142 837.446 207.311 815.187 184.439Z" fill="#FFFFFF" fill-rule="evenodd"/><path d="M331.162 254.105 347.042 234.87 392.587 272.47 376.706 291.706Z" fill="#FFFFFF" fill-rule="evenodd"/><path d="M925.178 235.772 941.08 256.528 894.197 292.446 878.295 271.691Z" fill="#FFFFFF" fill-rule="evenodd"/><path d="M964.885 315.44 982.261 321.985 973.864 344.277 956.488 337.732Z" fill="#FFFFFF" fill-rule="evenodd"/><path d="M955.94 335.458 973.669 343.633 965.299 361.785 947.57 353.61Z" fill="#FFFFFF" fill-rule="evenodd"/><rect x="0" y="0" width="18.5681" height="23.8207" fill="#FFFFFF" transform="matrix(-0.935816 0.352488 0.352488 0.935816 306.945 317.079)"/><rect x="0" y="0" width="19.5226" height="19.989" fill="#FFFFFF" transform="matrix(-0.90811 0.418731 0.418731 0.90811 316.902 336.795)"/><path d="M384 283C404.394 311.836 424.789 340.671 449.289 369.005 473.789 397.338 502.394 425.169 531 453" stroke="#000000" stroke-width="6" stroke-miterlimit="8" fill="none" fill-rule="evenodd"/><path d="M0 0C20.3944 28.8356 40.7888 57.6714 65.2888 86.0047 89.7888 114.338 118.394 142.169 147 170" stroke="#000000" stroke-width="6" stroke-miterlimit="8" fill="none" fill-rule="evenodd" transform="matrix(-1 0 0 1 887 283)"/><path d="M447 197C462.562 231.701 478.124 266.402 496.29 299.902 514.457 333.402 535.229 365.701 556 398" stroke="#000000" stroke-width="6" stroke-miterlimit="8" fill="none" fill-rule="evenodd"/><path d="M0 0C15.5619 34.7012 31.1238 69.4024 49.2904 102.902 67.4571 136.402 88.2286 168.701 109 201" stroke="#000000" stroke-width="6" stroke-miterlimit="8" fill="none" fill-rule="evenodd" transform="matrix(-1 0 0 1 827 200)"/><path d="M550 118C554.686 152.878 559.373 187.755 568.206 229.422 577.039 271.088 590.02 319.544 603 368" stroke="#000000" stroke-width="6" stroke-miterlimit="8" fill="none" fill-rule="evenodd"/><path d="M0 0C4.59791 34.8775 9.19593 69.7551 17.8626 111.422 26.5293 153.088 39.2646 201.544 52 250" stroke="#000000" stroke-width="6" stroke-miterlimit="8" fill="none" fill-rule="evenodd" transform="matrix(-1 0 0 1 723 118)"/><path d="M359 575C379.357 572.638 399.714 570.276 425.214 564.943 450.714 559.61 481.357 551.305 512 543" stroke="#000000" stroke-width="6" stroke-miterlimit="8" fill="none" fill-rule="evenodd"/><path d="M0 32C20.3571 29.6381 40.7144 27.2762 66.2143 21.9429 91.7143 16.6096 122.357 8.30472 153 0" stroke="#000000" stroke-width="6" stroke-miterlimit="8" fill="none" fill-rule="evenodd" transform="matrix(-1 0 0 1 919 543)"/><path d="M430 597C444.111 593.058 458.223 589.115 475.723 582.282 493.223 575.449 514.111 565.724 535 556" stroke="#000000" stroke-width="6" stroke-miterlimit="8" fill="none" fill-rule="evenodd"/><path d="M0 43C14.7832 38.8653 29.5665 34.7306 47.8998 27.564 66.2332 20.3974 88.1166 10.1987 110 0" stroke="#000000" stroke-width="6" stroke-miterlimit="8" fill="none" fill-rule="evenodd" transform="matrix(-1 0 0 1 845 553)"/><path d="M538 614C541.707 609.486 545.415 604.972 549.248 598.972 553.082 592.972 557.041 585.486 561 578" stroke="#000000" stroke-width="6" stroke-miterlimit="8" fill="none" fill-rule="evenodd"/><path d="M0 46C4.51338 40.2324 9.02676 34.4647 13.6935 26.7981 18.3602 19.1314 23.1801 9.56571 28 0" stroke="#000000" stroke-width="6" stroke-miterlimit="8" fill="none" fill-rule="evenodd" transform="matrix(-1 0 0 1 728 568)"/><path d="M343 596C310.967 596 285 589.508 285 581.5" stroke="#000000" stroke-width="6" stroke-miterlimit="8" fill="none" fill-rule="evenodd"/><path d="M58 0C90.0325 1.84604e-15 116 6.49187 116 14.5" stroke="#000000" stroke-width="6" stroke-miterlimit="8" fill="none" fill-rule="evenodd" transform="matrix(1 -1.22465e-16 -1.22465e-16 -1 871 596)"/><path d="M341 595C348.363 600.631 355.726 606.261 366.892 609.595 378.059 612.928 393.03 613.964 408 615" stroke="#000000" stroke-width="6" stroke-miterlimit="8" fill="none" fill-rule="evenodd"/><path d="M0 0C7.25292 5.63056 14.5059 11.2612 25.506 14.5946 36.506 17.928 51.253 18.9639 66 20" stroke="#000000" stroke-width="6" stroke-miterlimit="8" fill="none" fill-rule="evenodd" transform="matrix(-1 0 0 1 930 595)"/><path d="M407 615C424.452 621.72 441.904 628.44 462.738 631.542 483.571 634.643 507.785 634.126 532 633.609" stroke="#000000" stroke-width="6" stroke-miterlimit="8" fill="none" fill-rule="evenodd"/><path d="M0 0C17.4521 6.71999 34.9044 13.4401 55.7377 16.5417 76.571 19.6432 100.785 19.1262 125 18.6094" stroke="#000000" stroke-width="6" stroke-miterlimit="8" fill="none" fill-rule="evenodd" transform="matrix(-1 0 0 1 865 615)"/><path d="M531 633C566 641.466 601 649.932 636 650 671 650.067 706 641.736 741 633.405" stroke="#000000" stroke-width="6" stroke-miterlimit="8" fill="none" fill-rule="evenodd"/><path d="M285 583C288.245 589.975 291.489 596.95 296.489 602.117 301.489 607.283 308.245 610.642 315 614" stroke="#000000" stroke-width="6" stroke-miterlimit="8" fill="none" fill-rule="evenodd"/><path d="M0 0C2.81206 7.2 5.62411 14.4 9.95745 19.7333 14.2908 25.0667 20.1454 28.5333 26 32" stroke="#000000" stroke-width="6" stroke-miterlimit="8" fill="none" fill-rule="evenodd" transform="matrix(-1 0 0 1 986 583)"/><path d="M312.222 611.694C321.035 623.772 329.848 635.849 343.876 641.096 357.904 646.342 377.146 644.757 396.388 643.172" stroke="#000000" stroke-width="6" stroke-miterlimit="8" fill="none" fill-rule="evenodd"/><path d="M0 0C7.99086 12.9577 15.9817 25.9155 29.9232 32.4219 43.8647 38.9284 63.7569 38.9835 83.649 39.0386" stroke="#000000" stroke-width="6" stroke-miterlimit="8" fill="none" fill-rule="evenodd" transform="matrix(-0.992785 -0.119906 -0.119906 0.992785 961.107 614.61)"/><path d="M394 642C407.804 658.014 421.608 674.027 439.941 679.084 458.275 684.141 481.137 678.241 504 672.342" stroke="#000000" stroke-width="6" stroke-miterlimit="8" fill="none" fill-rule="evenodd"/><path d="M0 0C14.0549 15.603 28.1098 31.206 46.7765 36.1333 65.4431 41.0606 88.7216 35.3121 112 29.5636" stroke="#000000" stroke-width="6" stroke-miterlimit="8" fill="none" fill-rule="evenodd" transform="matrix(-1 0 0 1 876 642)"/><path d="M502 672C523.348 681.957 544.696 691.914 567.029 694.363 589.363 696.813 612.681 691.754 636 686.696" stroke="#000000" stroke-width="6" stroke-miterlimit="8" fill="none" fill-rule="evenodd"/><path d="M0 0C20.8701 9.95702 41.7402 19.914 63.5735 22.3634 85.4069 24.8127 108.203 19.7543 131 14.6959" stroke="#000000" stroke-width="6" stroke-miterlimit="8" fill="none" fill-rule="evenodd" transform="matrix(-1 0 0 1 766 672)"/><path d="M527 511.5C527 474.221 556.997 444 594 444 631.003 444 661 474.221 661 511.5 661 548.779 631.003 579 594 579 556.997 579 527 548.779 527 511.5Z" stroke="#000000" stroke-width="6" stroke-miterlimit="8" fill="#FFFFFF" fill-rule="evenodd"/></g></svg>