<?xml version="1.0" encoding="UTF-8" standalone="no"?>
<svg
   width="51.279293"
   height="49.398811"
   overflow="hidden"
   version="1.1"
   id="svg255"
   sodipodi:docname="logo_s.svg"
   inkscape:version="1.1 (c68e22c387, 2021-05-23)"
   xmlns:inkscape="http://www.inkscape.org/namespaces/inkscape"
   xmlns:sodipodi="http://sodipodi.sourceforge.net/DTD/sodipodi-0.dtd"
   xmlns="http://www.w3.org/2000/svg"
   xmlns:svg="http://www.w3.org/2000/svg">
  <sodipodi:namedview
     id="namedview257"
     pagecolor="#ffffff"
     bordercolor="#666666"
     borderopacity="1.0"
     inkscape:pageshadow="2"
     inkscape:pageopacity="0.0"
     inkscape:pagecheckerboard="0"
     showgrid="false"
     inkscape:zoom="3.0350456"
     inkscape:cx="59.801408"
     inkscape:cy="17.792154"
     inkscape:window-width="1368"
     inkscape:window-height="850"
     inkscape:window-x="-6"
     inkscape:window-y="-6"
     inkscape:window-maximized="1"
     inkscape:current-layer="g253" />
  <defs
     id="defs137">
    <clipPath
       id="clip0">
      <rect
         x="-3376"
         y="-358"
         width="8939"
         height="3312"
         id="rect134" />
    </clipPath>
  </defs>
  <g
     clip-path="url(#clip0)"
     transform="matrix(0.02438673,0,0,0.02438673,82.3236,-10.588413)"
     id="g253">
    <path
       d="m -3317.88,1411.86 c -61,-53.68 -63.76,-150.25 -6.17,-215.68 57.58,-65.44 153.72,-74.97 214.71,-21.29 -60.99,-53.68 -157.13,-44.15 -214.71,21.29 -57.59,65.43 -54.83,162 6.17,215.68 z"
       stroke="#000000"
       stroke-width="20.625"
       stroke-miterlimit="8"
       fill="#4472c4"
       fill-rule="evenodd"
       id="path153" />
    <path
       d="m -3355.5,2125.5 c 0,-100.52 458.91,-182 1025,-182 566.09,0 1025,81.48 1025,182 0,-100.52 -458.91,-182 -1025,-182 -566.09,0 -1025,81.48 -1025,182 z"
       stroke="#000000"
       stroke-width="20.625"
       stroke-miterlimit="8"
       fill="#4472c4"
       fill-rule="evenodd"
       id="path155" />
    <rect
       x="-3366"
       y="2119"
       width="44"
       height="80"
       fill="#ffffff"
       id="rect157" />
    <rect
       x="-1316"
       y="2119"
       width="43"
       height="80"
       fill="#ffffff"
       id="rect159" />
    <path
       d="M 250,645 C 111.929,645 0,500.612 0,322.5 0,144.388 111.929,0 250,0 111.929,0 0,144.388 0,322.5 0,500.612 111.929,645 250,645 Z"
       stroke="#000000"
       stroke-width="20.625"
       stroke-miterlimit="8"
       fill="#4472c4"
       fill-rule="evenodd"
       transform="matrix(0,1,1,0,-2654.5,444.5)"
       id="path161" />
    <path
       d="M 163.237,404.2 C 73.0839,404.2 0,313.717 0,202.1 0,90.4833 73.0839,0 163.237,0 73.0839,0 0,90.4833 0,202.1 0,313.717 73.0839,404.2 163.237,404.2 Z"
       stroke="#000000"
       stroke-width="20.625"
       stroke-miterlimit="8"
       fill="#4472c4"
       fill-rule="evenodd"
       transform="matrix(-0.497837,0.86727,0.86727,0.497837,-1950.34,578.658)"
       id="path163" />
    <path
       d="M 147.126,364.65 C 65.8706,364.65 0,283.02 0,182.325 0,81.6297 65.8706,0 147.126,0 65.8706,0 0,81.6297 0,182.325 0,283.02 65.8706,364.65 147.126,364.65 Z"
       stroke="#000000"
       stroke-width="20.625"
       stroke-miterlimit="8"
       fill="#4472c4"
       fill-rule="evenodd"
       transform="matrix(-0.720037,0.693936,0.693936,0.720037,-1638.69,815.809)"
       id="path165" />
    <path
       d="M 147.126,315.66 C 65.8706,315.66 0,244.997 0,157.83 0,70.6629 65.8706,0 147.126,0 65.8706,0 0,70.6629 0,157.83 0,244.997 65.8706,315.66 147.126,315.66 Z"
       stroke="#000000"
       stroke-width="20.625"
       stroke-miterlimit="8"
       fill="#4472c4"
       fill-rule="evenodd"
       transform="matrix(-0.750694,0.66065,0.66065,0.750694,-1445.51,1077.69)"
       id="path167" />
    <path
       d="M 0,0 C 29.156,78.2333 58.312,156.467 121.228,238.912 184.143,321.357 297.698,433.155 377.493,494.67 457.289,556.185 528.644,582.092 600,608"
       stroke="#000000"
       stroke-width="20.625"
       stroke-miterlimit="8"
       fill="none"
       fill-rule="evenodd"
       transform="matrix(-1,0,0,1,-1306.5,1349.5)"
       id="path169" />
    <path
       d="m -2984.23,921.455 c -44.88,-78.187 -2.79,-186.617 94.01,-242.184 96.8,-55.567 211.66,-37.229 256.54,40.958 -44.88,-78.187 -159.74,-96.525 -256.54,-40.958 -96.8,55.567 -138.89,163.997 -94.01,242.184 z"
       stroke="#000000"
       stroke-width="20.625"
       stroke-miterlimit="8"
       fill="#4472c4"
       fill-rule="evenodd"
       id="path171" />
    <path
       d="m -3173.7,1180.47 c -58.51,-56.39 -49.29,-160.88 20.58,-233.38 69.88,-72.505 173.95,-85.571 232.46,-29.185 -58.51,-56.386 -162.58,-43.32 -232.46,29.185 -69.87,72.5 -79.09,176.99 -20.58,233.38 z"
       stroke="#000000"
       stroke-width="20.625"
       stroke-miterlimit="8"
       fill="#4472c4"
       fill-rule="evenodd"
       id="path173" />
    <path
       d="m -3357.5,1349.5 c 29.16,78.23 58.31,156.47 121.23,238.91 62.91,82.45 176.47,194.25 256.26,255.76 79.8,61.52 151.15,87.42 222.51,113.33"
       stroke="#000000"
       stroke-width="20.625"
       stroke-miterlimit="8"
       fill="none"
       fill-rule="evenodd"
       id="path175" />
    <path
       d="m -2687.04,706.268 59.13,-23.922 41.97,103.729 -59.13,23.923 z"
       fill="#ffffff"
       fill-rule="evenodd"
       id="path177" />
    <path
       d="m -2024.78,682.346 56.87,31.765 -54.57,97.692 -56.87,-31.765 z"
       fill="#ffffff"
       fill-rule="evenodd"
       id="path179" />
    <path
       d="m -3033.05,917.7 62.1,-65.043 114.92,109.715 -62.09,65.038 z"
       fill="#ffffff"
       fill-rule="evenodd"
       id="path181" />
    <path
       d="m -1696.76,850.929 64.95,66.737 -111.45,108.454 -64.94,-66.735 z"
       fill="#ffffff"
       fill-rule="evenodd"
       id="path183" />
    <path
       d="m -3220.54,1162.66 46.34,-56.12 132.89,109.71 -46.33,56.13 z"
       fill="#ffffff"
       fill-rule="evenodd"
       id="path185" />
    <path
       d="m -1487.26,1109.17 46.4,60.56 -136.8,104.81 -46.4,-60.56 z"
       fill="#ffffff"
       fill-rule="evenodd"
       id="path187" />
    <path
       d="m -1371.4,1341.63 50.7,19.1 -24.5,65.04 -50.7,-19.1 z"
       fill="#ffffff"
       fill-rule="evenodd"
       id="path189" />
    <path
       d="m -1397.5,1400.04 51.73,23.85 -24.42,52.97 -51.73,-23.85 z"
       fill="#ffffff"
       fill-rule="evenodd"
       id="path191" />
    <rect
       x="0"
       y="0"
       width="54.179699"
       height="69.506104"
       fill="#ffffff"
       transform="matrix(-0.935816,0.352488,0.352488,0.935816,-3291.2,1346.41)"
       id="rect193" />
    <rect
       x="0"
       y="0"
       width="56.965099"
       height="58.3256"
       fill="#ffffff"
       transform="matrix(-0.90811,0.418731,0.418731,0.90811,-3262.15,1403.94)"
       id="rect195" />
    <path
       d="m -3065.5,1247.5 c 59.38,84.3 118.76,168.6 190.09,251.44 71.34,82.83 154.62,164.2 237.91,245.56"
       stroke="#000000"
       stroke-width="20.625"
       stroke-miterlimit="8"
       fill="none"
       fill-rule="evenodd"
       id="path197" />
    <path
       d="M 0,0 C 59.3795,84.3019 118.759,168.604 190.093,251.437 261.426,334.271 344.713,415.635 428,497"
       stroke="#000000"
       stroke-width="20.625"
       stroke-miterlimit="8"
       fill="none"
       fill-rule="evenodd"
       transform="matrix(-1,0,0,1,-1597.5,1247.5)"
       id="path199" />
    <path
       d="m -2880.5,996.5 c 45.26,101.17 90.52,202.34 143.35,300 52.83,97.67 113.24,191.84 173.65,286"
       stroke="#000000"
       stroke-width="20.625"
       stroke-miterlimit="8"
       fill="none"
       fill-rule="evenodd"
       id="path201" />
    <path
       d="M 0,0 C 45.4007,101.169 90.8015,202.337 143.801,300.004 196.801,397.671 257.401,491.835 318,586"
       stroke="#000000"
       stroke-width="20.625"
       stroke-miterlimit="8"
       fill="none"
       fill-rule="evenodd"
       transform="matrix(-1,0,0,1,-1773.5,1005.5)"
       id="path203" />
    <path
       d="m -2580.5,764.5 c 13.44,101.982 26.88,203.964 52.21,325.8 25.34,121.83 62.56,263.52 99.79,405.2"
       stroke="#000000"
       stroke-width="20.625"
       stroke-miterlimit="8"
       fill="none"
       fill-rule="evenodd"
       id="path205" />
    <path
       d="M 0,0 C 13.5285,101.982 27.0572,203.964 52.5572,325.797 78.0572,447.631 115.528,589.315 153,731"
       stroke="#000000"
       stroke-width="20.625"
       stroke-miterlimit="8"
       fill="none"
       fill-rule="evenodd"
       transform="matrix(-1,0,0,1,-2076.5,764.5)"
       id="path207" />
    <path
       d="m -3140.5,2098.5 c 59.47,-6.79 118.95,-13.58 193.45,-28.91 74.5,-15.34 164.02,-39.21 253.55,-63.09"
       stroke="#000000"
       stroke-width="20.625"
       stroke-miterlimit="8"
       fill="none"
       fill-rule="evenodd"
       id="path209" />
    <path
       d="M 0,92.0001 C 59.3417,85.2095 118.684,78.4193 193.017,63.0859 267.35,47.7526 356.675,23.8761 446,0"
       stroke="#000000"
       stroke-width="20.625"
       stroke-miterlimit="8"
       fill="none"
       fill-rule="evenodd"
       transform="matrix(-1,0,0,1,-1504.5,2006.5)"
       id="path211" />
    <path
       d="m -2931.5,2164.5 c 41.26,-11.44 82.52,-22.88 133.68,-42.72 51.17,-19.83 112.25,-48.06 173.32,-76.28"
       stroke="#000000"
       stroke-width="20.625"
       stroke-miterlimit="8"
       fill="none"
       fill-rule="evenodd"
       id="path213" />
    <path
       d="M 0,125 C 43.1402,112.981 86.2803,100.961 139.78,80.1281 193.281,59.2949 257.14,29.6473 321,0"
       stroke="#000000"
       stroke-width="20.625"
       stroke-miterlimit="8"
       fill="none"
       fill-rule="evenodd"
       transform="matrix(-1,0,0,1,-1720.5,2035.5)"
       id="path215" />
    <path
       d="m -2616.5,2212.5 c 10.64,-13.29 21.28,-26.58 32.28,-44.25 11,-17.66 22.36,-39.71 33.72,-61.75"
       stroke="#000000"
       stroke-width="20.625"
       stroke-miterlimit="8"
       fill="none"
       fill-rule="evenodd"
       id="path217" />
    <path
       d="M 0,133 C 13.5402,116.324 27.0804,99.6481 41.0805,77.4816 55.0806,55.3148 69.5404,27.6574 84.0002,0"
       stroke="#000000"
       stroke-width="20.625"
       stroke-miterlimit="8"
       fill="none"
       fill-rule="evenodd"
       transform="matrix(-1,0,0,1,-2060.5,2079.5)"
       id="path219" />
    <path
       d="m -3185.5,2160.5 c -93.89,0 -170,-18.58 -170,-41.5"
       stroke="#000000"
       stroke-width="20.625"
       stroke-miterlimit="8"
       fill="none"
       fill-rule="evenodd"
       id="path221" />
    <path
       d="M 169.5,0 C 263.112,0 339,18.5802 339,41.5001"
       stroke="#000000"
       stroke-width="20.625"
       stroke-miterlimit="8"
       fill="none"
       fill-rule="evenodd"
       transform="matrix(1,0,0,-1,-1645.5,2159.5)"
       id="path223" />
    <path
       d="m -3190.5,2158.5 c 21.43,16.33 42.86,32.66 75.36,42.32 32.5,9.67 76.07,12.68 119.64,15.68"
       stroke="#000000"
       stroke-width="20.625"
       stroke-miterlimit="8"
       fill="none"
       fill-rule="evenodd"
       id="path225" />
    <path
       d="M 0,0 C 21.4291,16.0471 42.8584,32.0945 75.3585,41.5946 107.859,51.0948 151.429,54.0473 195,57.0001"
       stroke="#000000"
       stroke-width="20.625"
       stroke-miterlimit="8"
       fill="none"
       fill-rule="evenodd"
       transform="matrix(-1,0,0,1,-1471.5,2158.5)"
       id="path227" />
    <path
       d="m -2997.5,2215.5 c 50.82,19.45 101.64,38.91 162.31,47.88 60.66,8.98 131.18,7.49 201.69,5.99"
       stroke="#000000"
       stroke-width="20.625"
       stroke-miterlimit="8"
       fill="none"
       fill-rule="evenodd"
       id="path229" />
    <path
       d="m 0,0 c 50.681,19.4526 101.362,38.9055 161.862,47.8837 60.5,8.9782 130.819,7.4817 201.138,5.9855"
       stroke="#000000"
       stroke-width="20.625"
       stroke-miterlimit="8"
       fill="none"
       fill-rule="evenodd"
       transform="matrix(-1,0,0,1,-1663.5,2215.5)"
       id="path231" />
    <path
       d="m -2635.5,2269.5 c 101.83,24.4 203.67,48.8 305.5,49 101.83,0.19 203.67,-23.82 305.5,-47.83"
       stroke="#000000"
       stroke-width="20.625"
       stroke-miterlimit="8"
       fill="none"
       fill-rule="evenodd"
       id="path233" />
    <path
       d="m -3354.5,2122.5 c 9.3,20.25 18.6,40.5 32.94,55.5 14.33,15 33.69,24.75 53.06,34.5"
       stroke="#000000"
       stroke-width="20.625"
       stroke-miterlimit="8"
       fill="none"
       fill-rule="evenodd"
       id="path235" />
    <path
       d="M 0,0 C 8.32801,20.925 16.656,41.8499 29.4894,57.3499 42.3227,72.8498 59.6613,82.9248 77,92.9998"
       stroke="#000000"
       stroke-width="20.625"
       stroke-miterlimit="8"
       fill="none"
       fill-rule="evenodd"
       transform="matrix(-1,0,0,1,-1308.5,2122.5)"
       id="path237" />
    <path
       d="m -3275.8,2206.07 c 25.71,35.24 51.43,70.48 92.36,85.79 40.93,15.31 97.08,10.68 153.23,6.06"
       stroke="#000000"
       stroke-width="20.625"
       stroke-miterlimit="8"
       fill="none"
       fill-rule="evenodd"
       id="path239" />
    <path
       d="M 0,0 C 23.3165,37.8093 46.6329,75.6186 87.3127,94.6037 127.993,113.589 186.036,113.75 244.079,113.911"
       stroke="#000000"
       stroke-width="20.625"
       stroke-miterlimit="8"
       fill="none"
       fill-rule="evenodd"
       transform="matrix(-0.992785,-0.119906,-0.119906,0.992785,-1382.43,2214.58)"
       id="path241" />
    <path
       d="m -3037.5,2295.5 c 40.28,45.99 80.56,91.98 134.06,106.5 53.5,14.52 120.22,-2.42 186.94,-19.36"
       stroke="#000000"
       stroke-width="20.625"
       stroke-miterlimit="8"
       fill="none"
       fill-rule="evenodd"
       id="path243" />
    <path
       d="M 0,0 C 40.7843,45.5773 81.5687,91.1545 135.735,105.547 189.902,119.94 257.451,103.149 325,86.3569"
       stroke="#000000"
       stroke-width="20.625"
       stroke-miterlimit="8"
       fill="none"
       fill-rule="evenodd"
       transform="matrix(-1,0,0,1,-1631.5,2295.5)"
       id="path245" />
    <path
       d="m -2722.5,2382.5 c 62.61,29.01 125.22,58.01 190.72,65.15 65.5,7.13 133.89,-7.6 202.28,-22.34"
       stroke="#000000"
       stroke-width="20.625"
       stroke-miterlimit="8"
       fill="none"
       fill-rule="evenodd"
       id="path247" />
    <path
       d="M 0,0 C 60.6985,29.0052 121.397,58.0105 184.897,65.1455 248.397,72.2804 314.698,57.5451 381,42.8099"
       stroke="#000000"
       stroke-width="20.625"
       stroke-miterlimit="8"
       fill="none"
       fill-rule="evenodd"
       transform="matrix(-1,0,0,1,-1952.5,2382.5)"
       id="path249" />
    <path
       d="m -2648.5,1914 c 0,-108.52 87.75,-196.5 196,-196.5 108.25,0 196,87.98 196,196.5 0,108.52 -87.75,196.5 -196,196.5 -108.25,0 -196,-87.98 -196,-196.5 z"
       stroke="#000000"
       stroke-width="20.625"
       stroke-miterlimit="8"
       fill="#ffffff"
       fill-rule="evenodd"
       id="path251" />
  </g>
</svg>
